<svg width="390" height="1200" xmlns="http://www.w3.org/2000/svg"><style>
    text {
      font-family: -apple-system, BlinkMacSystemFont, 'Segoe UI', sans-serif;
      font-size: 12px;
      fill: #fff;
      user-select: none;
    }
    .node { cursor: pointer; }
    .node:hover rect { fill: #222; }
    .node:hover circle { fill: #222; }
    .connector { stroke: #666; stroke-width: 2; }
  </style><rect width="100%" height="100%" fill="#000"/><a href="#screen-1"><g class="node"><rect x="135" y="20" width="120" height="40" fill="none" stroke="#fff" stroke-width="2" rx="4"/><text x="195" y="44" text-anchor="middle">Event Type</text></g></a><line x1="195" y1="60" x2="195" y2="80" class="connector"/><a href="#screen-2"><g class="node"><rect x="135" y="80" width="120" height="40" fill="none" stroke="#fff" stroke-width="2" rx="4"/><text x="195" y="104" text-anchor="middle">When?</text></g></a><line x1="195" y1="120" x2="195" y2="140" class="connector"/><a href="#screen-3"><g class="node"><rect x="135" y="140" width="120" height="40" fill="none" stroke="#fff" stroke-width="2" rx="4"/><text x="195" y="164" text-anchor="middle">Month</text></g></a><line x1="195" y1="180" x2="195" y2="200" class="connector"/><a href="#screen-4"><g class="node"><rect x="135" y="200" width="120" height="40" fill="none" stroke="#fff" stroke-width="2" rx="4"/><text x="195" y="224" text-anchor="middle">Day Type</text></g></a><line x1="195" y1="240" x2="195" y2="260" class="connector"/><a href="#screen-5"><g class="node"><rect x="135" y="260" width="120" height="40" fill="none" stroke="#fff" stroke-width="2" rx="4"/><text x="195" y="284" text-anchor="middle">Pick Date</text></g></a><line x1="195" y1="300" x2="195" y2="320" class="connector"/><a href="#screen-6"><g class="node"><rect x="135" y="320" width="120" height="40" fill="none" stroke="#fff" stroke-width="2" rx="4"/><text x="195" y="344" text-anchor="middle">Time Slots</text></g></a><line x1="195" y1="360" x2="195" y2="380" class="connector"/><a href="#screen-7"><g class="node"><rect x="135" y="380" width="120" height="40" fill="none" stroke="#888" stroke-width="2" rx="4"/><text x="195" y="404" text-anchor="middle">Time Detail</text></g></a><line x1="195" y1="420" x2="195" y2="440" class="connector"/><a href="#screen-8"><g class="node"><rect x="135" y="440" width="120" height="40" fill="none" stroke="#fff" stroke-width="2" rx="4"/><text x="195" y="464" text-anchor="middle">Guests</text></g></a><line x1="195" y1="480" x2="195" y2="500" class="connector"/><a href="#screen-9"><g class="node"><rect x="135" y="500" width="120" height="40" fill="none" stroke="#fff" stroke-width="2" rx="4"/><text x="195" y="524" text-anchor="middle">Your Details</text></g></a><line x1="195" y1="540" x2="195" y2="560" class="connector"/><a href="#screen-10"><g class="node"><rect x="135" y="560" width="120" height="40" fill="none" stroke="#888" stroke-width="2" rx="4"/><text x="195" y="584" text-anchor="middle">Details Filled</text></g></a><line x1="195" y1="600" x2="195" y2="620" class="connector"/><a href="#screen-11"><g class="node"><rect x="135" y="620" width="120" height="40" fill="none" stroke="#fff" stroke-width="2" rx="4"/><text x="195" y="644" text-anchor="middle">Review</text></g></a><line x1="195" y1="660" x2="195" y2="680" class="connector"/><a href="#screen-12"><g class="node"><circle cx="195" cy="700" r="20" fill="none" stroke="#4a9" stroke-width="2"/><text x="195" y="704" text-anchor="middle">Confirmed</text></g></a></svg>